<?xml version="1.0" encoding="utf-8"?>
<!-- Generator: Adobe Illustrator 16.0.3, SVG Export Plug-In . SVG Version: 6.00 Build 0)  -->
<!DOCTYPE svg PUBLIC "-//W3C//DTD SVG 1.1//EN" "http://www.w3.org/Graphics/SVG/1.1/DTD/svg11.dtd">
<svg version="1.1" id="Capa_1" xmlns="http://www.w3.org/2000/svg" xmlns:xlink="http://www.w3.org/1999/xlink" x="0px" y="0px"
	 width="48px" height="48px" viewBox="0 0 48 48" enable-background="new 0 0 48 48" xml:space="preserve">
<g>
	<path fill-rule="evenodd" clip-rule="evenodd" fill="#828282" d="M36.093,6.321c2.186,1.601,4.049,3.521,5.68,5.676
		c0.356,0.576,0.717,1.152,1.073,1.729c0.295,0.574,0.591,1.148,0.884,1.722c0.39,1.16,0.78,2.32,1.17,3.48
		c0.179,1.15,0.354,2.301,0.531,3.451c0,1.152-0.002,2.306-0.004,3.458c-0.175,1.152-0.348,2.305-0.521,3.454
		c-0.395,1.16-0.787,2.319-1.181,3.479c-0.293,0.572-0.587,1.147-0.88,1.721c-0.358,0.577-0.717,1.152-1.075,1.729
		c-1.622,2.167-3.516,4.063-5.675,5.693c-0.574,0.356-1.15,0.715-1.726,1.072c-0.577,0.292-1.153,0.584-1.729,0.88
		c-1.159,0.394-2.317,0.782-3.474,1.175c-1.151,0.171-2.307,0.342-3.46,0.517c-1.15,0-2.304,0.002-3.456,0.002
		c-1.152-0.177-2.303-0.352-3.455-0.523c-1.159-0.392-2.318-0.782-3.477-1.17c-0.577-0.296-1.153-0.588-1.73-0.88
		c-0.576-0.357-1.15-0.714-1.726-1.068c-2.139-1.653-4.064-3.519-5.674-5.695c-0.359-0.575-0.718-1.154-1.077-1.729
		c-0.294-0.575-0.588-1.148-0.883-1.723c-0.39-1.16-0.782-2.319-1.173-3.479c-0.174-1.149-0.349-2.302-0.523-3.454
		c-0.002-1.152-0.003-2.306-0.005-3.458c0.177-1.148,0.355-2.301,0.532-3.451c0.392-1.159,0.783-2.32,1.174-3.48
		c0.293-0.575,0.586-1.15,0.879-1.723c0.36-0.576,0.721-1.151,1.081-1.727c1.619-2.167,3.531-4.04,5.673-5.684
		c0.576-0.357,1.153-0.715,1.73-1.071c0.573-0.293,1.148-0.585,1.723-0.88c1.16-0.389,2.32-0.779,3.481-1.168
		c1.151-0.18,2.3-0.359,3.451-0.538c1.15,0.001,2.306,0.002,3.456,0.003c1.153,0.176,2.304,0.35,3.455,0.524
		c1.159,0.393,2.319,0.785,3.48,1.176c0.572,0.294,1.146,0.589,1.721,0.884C34.939,5.604,35.517,5.962,36.093,6.321z M16.981,24.771
		c1.155,0,2.309,0,3.464,0c2.878,0,2.908-0.006,2.283-2.888c-0.599-2.757-1.973-5.016-4.824-5.819
		c-2.87-0.811-5.534-0.203-7.578,2.102c-1.984,2.234-2.373,4.917-1.912,7.791c0.849,5.303,5.91,8.043,10.828,5.836
		c1.244-0.559,2.224-1.433,2.87-2.655c0.925-1.748,0.841-1.869-1.104-1.889c-0.593-0.009-0.957,0.106-1.126,0.748
		c-0.15,0.567-0.585,0.99-1.074,1.319c-1.666,1.113-3.44,1.117-5.193,0.326c-1.801-0.813-2.447-2.414-2.598-4.285
		c-0.045-0.563,0.259-0.594,0.684-0.592C13.459,24.778,15.221,24.771,16.981,24.771z M24.256,15.795
		c-0.065,0.298,0.096,0.409,0.193,0.541c1.6,2.186,3.19,4.382,4.823,6.544c0.425,0.56,0.531,0.968,0.052,1.567
		c-0.778,0.963-1.458,2.005-2.178,3.017c-1.039,1.455-2.069,2.913-3.115,4.363c-0.333,0.461-0.263,0.645,0.326,0.62
		c0.576-0.026,1.159-0.047,1.729,0.008c0.624,0.059,0.995-0.181,1.332-0.702c1.192-1.841,2.453-3.633,3.645-5.474
		c0.397-0.616,0.606-0.584,0.993,0.01c1.229,1.885,2.504,3.738,3.765,5.601c0.154,0.228,0.25,0.543,0.61,0.543
		c1.024,0.004,2.047,0.002,3.209,0.002c-0.231-0.368-0.368-0.613-0.528-0.839c-1.797-2.508-3.587-5.022-5.407-7.514
		c-0.315-0.437-0.382-0.73-0.02-1.193c1.228-1.565,2.418-3.161,3.587-4.771c0.528-0.731,1.168-1.396,1.619-2.33
		c-0.879,0-1.653,0.036-2.419-0.013c-0.559-0.036-0.895,0.158-1.208,0.615c-1.061,1.545-2.179,3.05-3.246,4.591
		c-0.354,0.511-0.569,0.504-0.912-0.012c-1.02-1.54-2.072-3.055-3.122-4.575c-0.17-0.252-0.287-0.596-0.674-0.599
		C26.284,15.791,25.262,15.795,24.256,15.795z"/>
	<path fill-rule="evenodd" clip-rule="evenodd" fill="#FBFBFB" d="M16.981,24.771c-1.76,0-3.521,0.007-5.282-0.006
		c-0.425-0.002-0.729,0.028-0.684,0.592c0.151,1.871,0.797,3.473,2.598,4.285c1.753,0.791,3.528,0.787,5.193-0.326
		c0.489-0.329,0.924-0.752,1.074-1.319c0.169-0.642,0.534-0.757,1.126-0.748c1.946,0.02,2.029,0.141,1.104,1.889
		c-0.646,1.223-1.626,2.097-2.87,2.655c-4.918,2.207-9.979-0.533-10.828-5.836c-0.46-2.874-0.072-5.557,1.912-7.791
		c2.044-2.305,4.708-2.913,7.578-2.102c2.852,0.804,4.225,3.063,4.824,5.819c0.625,2.882,0.595,2.888-2.283,2.888
		C19.29,24.771,18.136,24.771,16.981,24.771z M15.577,22.575c1.325,0,2.649-0.006,3.975,0.005c0.399,0.003,0.653-0.034,0.587-0.559
		c-0.273-2.2-2.27-3.943-4.558-3.945c-2.266-0.001-4.15,1.662-4.476,3.901c-0.068,0.465,0.022,0.614,0.498,0.606
		C12.928,22.562,14.253,22.577,15.577,22.575z"/>
	<path fill-rule="evenodd" clip-rule="evenodd" fill="#FBFBFB" d="M24.256,15.795c1.005,0,2.028-0.005,3.054,0.002
		c0.387,0.003,0.504,0.346,0.674,0.599c1.05,1.52,2.103,3.036,3.122,4.575c0.343,0.516,0.559,0.523,0.912,0.012
		c1.067-1.541,2.186-3.046,3.246-4.591c0.313-0.457,0.649-0.651,1.208-0.615c0.766,0.049,1.54,0.013,2.419,0.013
		c-0.451,0.934-1.091,1.599-1.619,2.33c-1.169,1.61-2.359,3.206-3.587,4.771c-0.362,0.463-0.296,0.756,0.02,1.193
		c1.82,2.491,3.61,5.006,5.407,7.514c0.16,0.226,0.297,0.471,0.528,0.839c-1.162,0-2.185,0.002-3.209-0.002
		c-0.36,0-0.456-0.315-0.61-0.543c-1.261-1.862-2.536-3.716-3.765-5.601c-0.387-0.594-0.596-0.626-0.993-0.01
		c-1.191,1.841-2.452,3.633-3.645,5.474c-0.337,0.521-0.708,0.761-1.332,0.702c-0.57-0.055-1.153-0.034-1.729-0.008
		c-0.589,0.024-0.659-0.159-0.326-0.62c1.045-1.45,2.076-2.908,3.115-4.363c0.72-1.012,1.399-2.054,2.178-3.017
		c0.479-0.599,0.373-1.008-0.052-1.567c-1.633-2.162-3.224-4.358-4.823-6.544C24.353,16.204,24.191,16.094,24.256,15.795z"/>
	<path fill-rule="evenodd" clip-rule="evenodd" fill="#828282" d="M15.577,22.575c-1.324,0.001-2.649-0.014-3.973,0.008
		c-0.476,0.008-0.566-0.142-0.498-0.606c0.326-2.239,2.209-3.902,4.476-3.901c2.288,0.002,4.285,1.745,4.558,3.945
		c0.066,0.525-0.188,0.562-0.587,0.559C18.226,22.569,16.902,22.575,15.577,22.575z"/>
</g>
</svg>
